<svg width="408" height="250" viewBox="0 0 408 432" fill="none" xmlns="http://www.w3.org/2000/svg">
<path d="M189.938 247.205V239.772L184.578 242.454L175.171 237.044C172.108 235.287 167.132 235.287 164.07 237.044L69.5295 291.445L64.1471 288.833V296.173C64.0311 297.41 64.7735 298.67 66.4207 299.618L78.9023 306.797C81.9647 308.554 86.9295 308.554 89.9919 306.797L187.641 250.616C189.288 249.679 190.042 248.431 189.938 247.205Z" fill="#55C3FE"/>
<path d="M69.541 291.445L64.1586 288.833V296.173C64.0426 297.41 64.785 298.67 66.4322 299.618L78.9138 306.797C80.4102 307.653 82.3474 308.08 84.3078 308.103V282.937L69.541 291.445Z" fill="#179ECC"/>
<path d="M78.9139 298.948C81.9763 300.717 86.9411 300.717 90.0035 298.948L187.652 242.766C190.715 240.998 190.715 238.142 187.652 236.385L175.171 229.206C172.108 227.438 167.132 227.438 164.069 229.206L66.4323 285.388C63.3699 287.157 63.3699 290.012 66.4323 291.769L78.9139 298.948Z" fill="#97DFFF"/>
<path d="M108.494 279.55L101.685 275.712V241.009L145.602 215.751L108.494 279.55Z" fill="#179ECC"/>
<path d="M152.4 254.292L108.494 279.55V244.847L152.4 219.588V254.292Z" fill="#35AFE5"/>
<path d="M224.738 36.2931L218.346 32.6633C218.218 32.5592 218.068 32.4783 217.905 32.4205C217.29 32.1893 216.49 32.2818 215.632 32.7904L31.8643 138.518C29.8923 139.651 28.3031 142.414 28.3031 144.68V285.319C28.3031 286.452 28.6975 287.249 29.3471 287.619C29.4399 287.677 29.5443 287.712 29.6487 287.758L36.0055 291.399L37.3279 284.544L35.4255 285.33L215.643 181.649C217.615 180.516 219.216 177.753 219.216 175.487V40.131L224.738 36.2931Z" fill="#35AFE5"/>
<path d="M218.346 32.6633C218.218 32.5592 218.067 32.4783 217.905 32.4205C217.29 32.1893 216.49 32.2818 215.632 32.7904L31.8643 138.518C31.0059 139.015 30.2287 139.813 29.6139 140.749L152.458 217.97L215.62 181.625C217.592 180.493 219.193 177.73 219.193 175.464V40.131L224.726 36.2931L218.346 32.6633Z" fill="#97DFFF"/>
<path d="M225.805 179.221C225.805 181.487 224.204 184.25 222.244 185.382L38.4764 291.11C36.5044 292.243 34.9152 291.33 34.9152 289.064V148.425C34.9152 146.159 36.516 143.397 38.4764 142.264L222.244 36.5359C224.216 35.403 225.805 36.3162 225.805 38.582V179.221Z" fill="#55C3FE"/>
<path d="M222.336 168.921L38.3604 274.776V148.182L222.336 42.3274V168.921Z" fill="#E6F7FF"/>
<path d="M220.538 43.3678V167.522L38.3604 272.337V274.776L222.336 168.921V42.3274L220.538 43.3678Z" fill="white"/>
<path d="M205.122 73.4354L131.787 115.629V111.445L205.122 69.2507V73.4354Z" fill="#CBE9F4"/>
<path d="M205.122 80.9147L90.5951 146.807V142.622L205.122 76.73V80.9147Z" fill="#CBE9F4"/>
<path d="M205.122 88.394L90.5951 154.286V150.101L205.122 84.2093V88.394Z" fill="#CBE9F4"/>
<path d="M205.122 95.8734L90.5951 161.765V157.581L205.122 91.6886V95.8734Z" fill="#CBE9F4"/>
<path d="M205.122 103.353L90.5951 169.245V165.06L205.122 99.168V103.353Z" fill="#CBE9F4"/>
<path d="M205.122 110.832L90.5951 176.724V172.539L205.122 106.647V110.832Z" fill="#CBE9F4"/>
<path d="M205.122 125.791L131.787 167.985V163.8L205.122 121.606V125.791Z" fill="#CBE9F4"/>
<path d="M205.122 133.27L90.5951 199.162V194.977L205.122 129.085V133.27Z" fill="#CBE9F4"/>
<path d="M205.122 140.749L90.5951 206.641V202.457L205.122 136.565V140.749Z" fill="#CBE9F4"/>
<path d="M205.122 148.229L90.5951 214.121V209.936L205.122 144.044V148.229Z" fill="#CBE9F4"/>
<path d="M205.122 155.708L90.5951 221.6V217.415L205.122 151.523V155.708Z" fill="#CBE9F4"/>
<path d="M145.509 197.486L90.5951 229.079V224.895L145.509 193.301V197.486Z" fill="#CBE9F4"/>
<path d="M382.59 288.012L284.06 231.322L265.013 97.5496L284.06 86.6947L382.59 143.397V288.012Z" fill="#144682"/>
<path d="M377.695 285.504L361.165 293.908L265.442 102.439L283.619 92.0933L377.695 146.206V285.504Z" fill="white"/>
<path d="M363.543 298.867L265.013 242.165V97.5496L363.543 154.24V298.867Z" fill="#2D5CA0"/>
<path d="M360.388 300.821L261.857 244.119L242.81 110.346L261.857 99.5032L360.388 156.193V300.821Z" fill="#1890C6"/>
<path d="M355.493 298.301L338.963 306.716L243.24 115.248L261.417 104.89L355.493 159.014V298.301Z" fill="white"/>
<path d="M341.341 311.664L242.81 254.974V110.346L341.341 167.037V311.664Z" fill="#55C3FE"/>
<path d="M242.81 254.974V110.346L341.341 167.037L242.81 254.974Z" fill="#C4DDE8"/>
<path d="M267.947 116.531L259.572 111.815V94.0353L263.76 99.9656L267.947 97.2259V116.531Z" fill="#EA4266"/>
<path d="M113.598 326.125V305.745L236.036 255.69L327.305 308.196L204.867 378.643" fill="#144682"/>
<path d="M236.036 249.136L118.134 303.653V322.195L204.867 372.088L327.305 301.641L236.036 249.136Z" fill="#E5E5E5"/>
<path d="M236.036 244.396L216.49 253.436V311.814H118.134V317.455L204.867 367.348L327.305 296.902L236.036 244.396Z" fill="#F4F4F4"/>
<path d="M236.036 240.05L216.49 249.09V311.814H118.134V313.109L204.867 363.013L327.305 292.567L236.036 240.05Z" fill="white"/>
<path d="M204.867 358.262L113.598 305.745L236.036 235.299L327.305 287.816L204.867 358.262Z" fill="#2D5CA0"/>
<path d="M205.157 350.979L118.447 301.086V281.723L234.771 234.154L321.481 284.047L205.157 350.979Z" fill="#1890C6"/>
<path d="M234.771 227.935L122.762 279.724V297.341L205.157 344.749L321.481 277.816L234.771 227.935Z" fill="#E5E5E5"/>
<path d="M234.771 223.426L216.2 232.015V287.48H122.762V292.833L205.157 340.252L321.481 273.319L234.771 223.426Z" fill="#F4F4F4"/>
<path d="M234.771 219.299L216.2 227.889V287.48H122.762V288.717L205.157 336.125L321.481 269.192L234.771 219.299Z" fill="white"/>
<path d="M205.157 331.605L118.447 281.723L234.771 214.791L321.481 264.672L205.157 331.605Z" fill="#55C3FE"/>
<path d="M205.806 326.634L122.924 278.938V260.43L234.122 214.964L317.004 262.649L205.806 326.634Z" fill="#EA4266"/>
<path d="M234.122 209.011L127.042 258.523V275.365L205.806 320.681L317.004 256.696L234.122 209.011Z" fill="#E5E5E5"/>
<path d="M234.122 204.711L216.362 212.918V265.933H127.042V271.054L205.806 316.38L317.004 252.396L234.122 204.711Z" fill="#F4F4F4"/>
<path d="M234.122 200.769L216.362 208.976V265.933H127.042V267.112L205.806 312.427L317.004 248.454L234.122 200.769Z" fill="white"/>
<path d="M205.806 308.115L122.924 260.43L234.122 196.445L317.004 244.142L205.806 308.115Z" fill="#FE7386"/>
<path d="M122.924 260.43L188.743 298.289L243.646 266.695L177.839 228.836L122.924 260.43Z" fill="#EF92A9"/>
<path d="M172.561 231.865L234.122 196.445L279.269 222.432L172.561 231.865Z" fill="#EF92A9"/>
<path d="M338.94 109.156C336.074 104.983 339.52 76.0711 335.402 73.4932C335.436 72.8227 335.425 72.1291 335.332 71.3893C336.318 71.1812 315.67 47.0439 311.54 50.8125C307.411 54.5811 310.636 60.9622 310.636 60.9622C310.636 60.9622 310.879 62.0372 309.244 62.7424C310.148 63.1008 311.065 63.147 311.877 63.0777C311.912 63.332 311.935 63.5747 311.981 63.8406H311.97H311.981C312.19 65.2741 312.492 66.8115 312.921 68.4877C313.385 70.2564 313.768 71.8864 314.127 73.366C313.953 73.5394 313.779 73.7013 313.605 73.8862C313.547 73.8862 313.536 73.9556 313.536 73.9556C313.431 74.0828 313.338 74.2099 313.234 74.3371C313.014 74.603 312.793 74.8573 312.584 75.1463C305.207 84.6371 307.62 95.7809 303.084 99.5263C301.541 100.798 298.119 103.538 293.839 105.272L287.876 106.659L279.455 90.6714L279.617 95.6306L279.455 95.411L279.965 108.266C277.819 108.462 276.149 115.225 279.698 117.259C279.919 117.387 287.505 117.918 287.702 117.988L288.862 126.519L288.514 134.773C283.863 138.969 279.849 143.686 278.759 148.125C275.801 160.216 276.868 188.238 276.868 188.238C276.868 188.238 276.914 188.33 276.996 188.446C275.522 189.567 270.279 193.648 269.015 195.474C268.887 195.659 268.806 195.844 268.748 196.029C268.516 196.757 268.806 197.44 269.525 197.879C269.606 197.925 269.711 197.971 269.804 198.018C269.85 198.041 269.896 198.064 269.954 198.087C270.036 198.122 270.128 198.145 270.221 198.179C270.302 198.202 270.372 198.226 270.465 198.249C270.546 198.272 270.639 198.283 270.732 198.295C270.836 198.307 270.929 198.33 271.045 198.341C271.138 198.353 271.23 198.353 271.323 198.364C271.439 198.364 271.567 198.376 271.694 198.364C271.799 198.364 271.892 198.364 271.996 198.353C272.135 198.341 272.274 198.33 272.414 198.307C272.518 198.295 272.622 198.283 272.727 198.26C272.878 198.237 273.04 198.202 273.202 198.168C273.307 198.145 273.423 198.122 273.527 198.087C273.701 198.041 273.875 197.983 274.061 197.925C274.177 197.89 274.281 197.856 274.397 197.821C274.594 197.752 274.803 197.671 275.012 197.578C275.116 197.532 275.209 197.497 275.314 197.451C275.627 197.312 275.952 197.162 276.276 196.989C281.798 194.087 282.97 193.324 284.048 192.712C284.234 192.607 284.373 192.492 284.478 192.365C284.501 192.33 284.536 192.307 284.559 192.284C284.663 192.157 284.744 192.029 284.791 191.879C284.791 191.868 284.791 191.868 284.791 191.856C284.837 191.706 284.86 191.544 284.86 191.371C284.86 191.336 284.86 191.301 284.86 191.266C284.86 191.058 284.849 190.827 284.814 190.573C284.953 190.515 285.058 190.469 285.058 190.469L289.709 149.442C289.709 149.442 297.18 161.673 302.666 159.465C299.163 163.788 299.964 158.286 299.326 162.864C297.609 175.198 297.586 202.029 297.586 202.029C297.586 202.029 297.655 202.11 297.771 202.214C295.973 203.601 291.287 207.289 290.104 209C289.976 209.184 289.895 209.369 289.837 209.554C289.605 210.283 289.895 210.965 290.614 211.404C290.695 211.462 290.8 211.496 290.892 211.543C290.939 211.566 290.985 211.589 291.043 211.612C291.124 211.647 291.217 211.67 291.31 211.693C291.391 211.716 291.461 211.739 291.554 211.762C291.635 211.785 291.728 211.797 291.82 211.809C291.925 211.832 292.029 211.843 292.134 211.855C292.226 211.866 292.319 211.866 292.412 211.866C292.528 211.866 292.656 211.878 292.783 211.866C292.888 211.866 292.98 211.855 293.085 211.855C293.224 211.843 293.363 211.832 293.502 211.809C293.607 211.797 293.711 211.785 293.816 211.762C293.966 211.739 294.129 211.705 294.291 211.67C294.396 211.647 294.512 211.624 294.628 211.589C294.802 211.543 294.976 211.485 295.15 211.427C295.266 211.392 295.37 211.358 295.486 211.323C295.683 211.254 295.892 211.173 296.101 211.08C296.205 211.034 296.298 210.999 296.402 210.965C296.716 210.826 297.04 210.676 297.377 210.502C302.898 207.601 304.07 206.838 305.149 206.225C305.334 206.121 305.474 206.005 305.59 205.89C305.613 205.855 305.636 205.832 305.671 205.809C305.764 205.682 305.845 205.555 305.903 205.404C305.903 205.393 305.903 205.393 305.914 205.381C305.961 205.231 305.984 205.069 305.984 204.896C305.984 204.861 305.984 204.826 305.984 204.792C305.984 204.352 305.914 203.832 305.822 203.185C305.798 203.023 305.694 202.884 305.543 202.746C305.81 202.537 311.158 149.905 311.158 149.905C311.158 149.905 333.07 140.125 336.098 138.484C350.424 130.715 338.94 109.156 338.94 109.156Z" fill="#E2E2E2"/>
<path d="M307.225 60.6616C307.225 60.6616 307.341 59.494 310.52 66.5225C313.698 73.551 306.065 96.0121 304.256 98.4744C302.446 100.937 279.733 107.873 274.734 100.185C277.854 98.59 274.838 96.2895 275.453 92.7059C284.733 95.9427 293.943 88.579 296.774 86.2323C301.506 82.325 298.664 70.3951 307.225 60.6616Z" fill="#C7EBF9"/>
<path d="M271.079 174.851C271.079 174.851 264.177 180.042 262.704 182.18C261.219 184.319 264.444 186.608 269.966 183.706C275.487 180.805 276.659 180.042 277.738 179.429C278.805 178.816 278.608 177.949 278.399 176.377C278.179 174.805 271.079 174.851 271.079 174.851Z" fill="white"/>
<path d="M277.715 178.446C276.636 179.059 275.464 179.822 269.943 182.724C265.79 184.908 262.948 184.157 262.414 182.735C261.788 184.677 264.897 186.353 269.943 183.706C275.464 180.805 276.636 180.042 277.715 179.429C278.538 178.967 278.608 178.342 278.504 177.371C278.434 177.822 278.214 178.169 277.715 178.446Z" fill="#4C4C4C"/>
<path d="M330.124 108.809C330.124 108.809 329.868 124.346 316.099 127.721C302.33 131.097 287.772 138.09 287.772 138.09L278.736 177.186C278.736 177.186 276.81 178.146 274.85 177.811C271.671 177.256 270.546 174.944 270.546 174.944C270.546 174.944 269.479 146.922 272.437 134.831C275.395 122.739 300.196 108.497 300.196 108.497L330.124 108.809Z" fill="#112F5B"/>
<path d="M292.157 188.376C292.157 188.376 285.255 193.567 283.782 195.706C282.297 197.844 285.522 200.133 291.043 197.231C296.565 194.33 297.736 193.567 298.815 192.954C299.894 192.342 299.685 191.475 299.476 189.902C299.256 188.33 292.157 188.376 292.157 188.376Z" fill="white"/>
<path d="M298.804 191.983C297.725 192.596 296.553 193.359 291.032 196.26C286.879 198.445 284.037 197.694 283.503 196.272C282.877 198.214 285.997 199.89 291.032 197.243C296.553 194.341 297.725 193.578 298.804 192.966C299.627 192.492 299.697 191.879 299.592 190.908C299.523 191.347 299.302 191.694 298.804 191.983Z" fill="#4C4C4C"/>
<path d="M343.765 117.976C343.765 117.976 345.099 133.455 331.736 138.206C318.384 142.957 304.615 151.384 304.615 151.384L299.604 189.093C299.604 189.093 298.258 190.573 295.59 190.573C292.841 190.573 291.264 188.723 291.264 188.723C291.264 188.723 288.166 160.182 289.872 147.847C291.588 135.513 310.357 121.005 310.357 121.005L343.765 117.976Z" fill="#164072"/>
<path d="M298.27 109.769C298.27 109.769 296.785 63.3551 310.995 57.9335C325.205 52.5118 338.22 65.4128 343.765 77.9091C349.322 90.4055 347.86 112.15 343.765 120.23C324.277 133.605 297.713 116.196 298.27 109.769Z" fill="#E6F7FF"/>
<path d="M343.765 77.9207C338.209 65.4243 325.194 52.5234 310.995 57.945C310.531 58.1184 310.079 58.3496 309.65 58.6155C320.113 59.9449 329.01 69.9559 333.348 79.7125C338.905 92.2089 337.432 113.953 333.348 122.034C331.4 123.363 329.381 124.38 327.328 125.143C332.884 125.166 338.58 123.802 343.765 120.242C347.848 112.161 349.31 90.417 343.765 77.9207Z" fill="white"/>
<path d="M306.982 37.2526C306.982 37.2526 303.432 42.9055 306.61 55.1822C309.186 65.1238 309.568 70.6379 313.744 71.0541C317.909 71.4702 330.39 68.4415 329.022 58.0837C330.263 57.8179 332.803 53.0783 330.796 49.3097C328.79 45.5411 327.386 49.6565 327.386 49.6565C327.386 49.6565 327.467 41.4489 321.644 38.4549C315.832 35.4724 306.982 37.2526 306.982 37.2526Z" fill="url(#paint0_linear_269_176)"/>
<path d="M320.67 47.1133C320.646 46.6393 316.227 52.928 309.116 50.8934C311.564 50.1536 312.12 48.4427 312.12 48.4427C312.12 48.4427 309.742 51.6101 305.659 50.535C307.399 49.8183 308.246 49.0438 308.246 49.0438C308.246 49.0438 305.532 50.4657 302.945 49.4368C304.58 48.7317 304.337 47.6566 304.337 47.6566C304.337 47.6566 302.887 49.1016 300.08 46.6509C301.228 46.5006 301.112 41.2755 305.242 37.5069C309.371 33.7384 312.724 32.8598 318.268 33.7962C316.911 32.3974 315.473 31.6113 313.524 31.9234C315.74 30.6981 320.414 32.8945 321.795 34.9406C326.098 33.2991 334.195 36.1429 331.516 51.7604C331.469 51.3674 331.098 48.8242 329.59 48.3502C328.07 47.8647 326.794 50.8472 327.142 51.5986C327.49 52.35 327.653 56.8006 327.653 56.8006L325.692 57.8294C325.692 57.8294 326.307 53.9568 324.904 52.7893C323.488 51.6217 320.936 53.0667 320.67 47.1133Z" fill="#112F5B"/>
<path d="M273.144 82.1054L281.566 93.3649L308.756 87.0531L307.202 122.08L282.459 121.779L274.316 111.907L273.144 82.1054Z" fill="white"/>
<path d="M273.144 77.3774L281.566 93.3648L282.459 121.779L274.316 111.907L273.144 77.3774Z" fill="#E6F7FF"/>
<path d="M314.313 106.023C314.313 106.023 313.478 107.306 311.703 106.023C309.928 104.74 309.267 102.555 308.165 101.746C308.026 104.543 308.153 106.497 304.685 106.428C301.205 106.358 298.966 105.884 296.982 106.023C294.999 106.162 297.365 114.866 307.527 115.063C313.13 114.716 315.508 111.595 315.508 111.595L314.313 106.023Z" fill="url(#paint1_linear_269_176)"/>
<path d="M273.655 94.9601C273.655 94.9601 275.522 98.7749 276.682 99.2142C277.842 99.6535 276.938 106 273.388 103.965C269.838 101.919 271.509 95.1682 273.655 94.9601Z" fill="url(#paint2_linear_269_176)"/>
<path d="M332.386 76.4641C332.386 76.4641 332.989 66.9271 339.717 70.7188C346.445 74.5221 353.602 97.1334 353.602 100.185C353.602 103.237 322.398 118.381 313.814 115.121C315.38 112 315.38 107.919 313.744 104.659C323.152 101.804 335.204 98.1391 337.246 95.0873C339.299 92.047 331.249 89.3535 332.386 76.4641Z" fill="#C7EBF9"/>
<path d="M141.473 414.525L0.822754 333.605V328.322L187.235 382.908V388.191L141.473 414.525Z" fill="#55C3FE"/>
<path d="M141.473 414.525L0.822754 333.605V328.322L141.473 408.71V414.005V414.525Z" fill="#35AFE5"/>
<path d="M141.473 409.242L0.822754 328.322L46.5848 301.988L187.235 382.908L141.473 409.242Z" fill="#97DFFF"/>
<path d="M50.6679 316.808L41.3995 311.467V310.334L56.6535 312.23V313.363L50.6679 316.808Z" fill="#32A5C4"/>
<path d="M50.6679 315.675L41.3995 310.334L47.3851 306.901L56.6535 312.23L50.6679 315.675Z" fill="#ADF8FF"/>
<path d="M60.5975 322.519L51.3291 317.19V316.057L66.5831 317.953V319.085L60.5975 322.519Z" fill="#32A5C4"/>
<path d="M60.5975 321.386L51.3291 316.057L57.3031 312.612L66.5831 317.953L60.5975 321.386Z" fill="#ADF8FF"/>
<path d="M70.5272 328.241L61.2472 322.9V321.779L76.5012 323.663V324.796L70.5272 328.241Z" fill="#32A5C4"/>
<path d="M70.5272 327.108L61.2472 321.779L67.2328 318.334L76.5012 323.663L70.5272 327.108Z" fill="#ADF8FF"/>
<path d="M80.4452 333.963L71.1768 328.622V327.49L86.4308 329.385V330.518L80.4452 333.963Z" fill="#32A5C4"/>
<path d="M80.4452 332.83L71.1768 327.49L77.1508 324.056L86.4308 329.385L80.4452 332.83Z" fill="#ADF8FF"/>
<path d="M90.3747 339.674L81.0947 334.345V333.212L96.3487 335.108V336.24L90.3747 339.674Z" fill="#32A5C4"/>
<path d="M90.3747 338.541L81.0947 333.212L87.0803 329.767L96.3487 335.108L90.3747 338.541Z" fill="#ADF8FF"/>
<path d="M100.293 345.396L91.0243 340.055V338.922L106.278 340.818V341.951L100.293 345.396Z" fill="#32A5C4"/>
<path d="M100.293 344.263L91.0243 338.922L96.9983 335.489L106.278 340.818L100.293 344.263Z" fill="#ADF8FF"/>
<path d="M110.222 351.107L100.942 345.777V344.645L116.196 346.54V347.673L110.222 351.107Z" fill="#32A5C4"/>
<path d="M110.222 349.985L100.942 344.645L106.928 341.211L116.196 346.54L110.222 349.985Z" fill="#ADF8FF"/>
<path d="M120.14 356.829L110.872 351.5V350.367L126.126 352.263V353.395L120.14 356.829Z" fill="#32A5C4"/>
<path d="M120.14 355.696L110.872 350.367L116.858 346.922L126.126 352.263L120.14 355.696Z" fill="#ADF8FF"/>
<path d="M130.07 362.551L120.802 357.222V356.089L136.056 357.973V359.106L130.07 362.551Z" fill="#32A5C4"/>
<path d="M130.07 361.418L120.802 356.089L126.776 352.644L136.056 357.973L130.07 361.418Z" fill="#ADF8FF"/>
<path d="M139.988 368.273L130.719 362.932V361.8L145.973 363.695V364.828L139.988 368.273Z" fill="#32A5C4"/>
<path d="M139.988 367.14L130.719 361.8L136.693 358.355L145.973 363.695L139.988 367.14Z" fill="#ADF8FF"/>
<path d="M149.918 373.984L140.649 368.655V367.522L155.903 369.418V370.551L149.918 373.984Z" fill="#32A5C4"/>
<path d="M149.918 372.851L140.649 367.522L146.623 364.077L155.903 369.418L149.918 372.851Z" fill="#ADF8FF"/>
<path d="M159.847 379.706L150.567 374.365V373.244L165.821 375.14V376.261L159.847 379.706Z" fill="#32A5C4"/>
<path d="M159.847 378.573L150.567 373.244L156.553 369.799L165.821 375.14L159.847 378.573Z" fill="#ADF8FF"/>
<path d="M169.765 385.428L160.497 380.088V378.955L175.751 380.85V381.983L169.765 385.428Z" fill="#32A5C4"/>
<path d="M169.765 384.295L160.497 378.955L166.471 375.521L175.751 380.85L169.765 384.295Z" fill="#ADF8FF"/>
<path d="M48.3364 324.472L33.6624 315.906V314.774L54.322 319.895V321.027L48.3364 324.472Z" fill="#32A5C4"/>
<path d="M48.3364 323.339L33.6624 314.774L39.648 311.34L54.322 319.895L48.3364 323.339Z" fill="#ADF8FF"/>
<path d="M58.266 330.183L48.986 324.854V323.721L64.24 325.617V326.75L58.266 330.183Z" fill="#32A5C4"/>
<path d="M58.266 329.05L48.986 323.721L54.9716 320.276L64.24 325.617L58.266 329.05Z" fill="#ADF8FF"/>
<path d="M68.1839 335.905L58.9155 330.564V329.443L74.1695 331.339V332.46L68.1839 335.905Z" fill="#32A5C4"/>
<path d="M68.1839 334.772L58.9155 329.443L64.9011 325.998L74.1695 331.339L68.1839 334.772Z" fill="#ADF8FF"/>
<path d="M78.1136 341.627L68.8336 336.287V335.154L84.0992 337.05V338.183L78.1136 341.627Z" fill="#32A5C4"/>
<path d="M78.1136 340.495L68.8336 335.154L74.8192 331.72L84.0992 337.05L78.1136 340.495Z" fill="#ADF8FF"/>
<path d="M88.0316 347.338L78.7632 342.009V340.876L94.0172 342.772V343.905L88.0316 347.338Z" fill="#32A5C4"/>
<path d="M88.0316 346.205L78.7632 340.876L84.7372 337.431L94.0172 342.772L88.0316 346.205Z" fill="#ADF8FF"/>
<path d="M97.9612 353.06L88.6927 347.72V346.587L103.947 348.482V349.615L97.9612 353.06Z" fill="#32A5C4"/>
<path d="M97.9612 351.927L88.6927 346.587L94.6667 343.153L103.947 348.482L97.9612 351.927Z" fill="#ADF8FF"/>
<path d="M107.891 358.771L98.6107 353.442V352.309L113.865 354.205V355.338L107.891 358.771Z" fill="#32A5C4"/>
<path d="M107.891 357.65L98.6107 352.309L104.596 348.864L113.865 354.205L107.891 357.65Z" fill="#ADF8FF"/>
<path d="M117.809 364.493L108.54 359.164V358.031L123.794 359.927V361.06L117.809 364.493Z" fill="#32A5C4"/>
<path d="M117.809 363.36L108.54 358.031L114.514 354.586L123.794 359.927L117.809 363.36Z" fill="#ADF8FF"/>
<path d="M127.738 370.215L118.458 364.875V363.742L133.712 365.638V366.77L127.738 370.215Z" fill="#32A5C4"/>
<path d="M127.738 369.082L118.458 363.742L124.444 360.308L133.712 365.638L127.738 369.082Z" fill="#ADF8FF"/>
<path d="M137.656 375.937L128.388 370.597V369.464L143.642 371.36V372.493L137.656 375.937Z" fill="#32A5C4"/>
<path d="M137.656 374.805L128.388 369.464L134.374 366.031L143.642 371.36L137.656 374.805Z" fill="#ADF8FF"/>
<path d="M147.586 381.648L138.306 376.307V375.186L153.56 377.082V378.215L147.586 381.648Z" fill="#32A5C4"/>
<path d="M147.586 380.515L138.306 375.186L144.291 371.741L153.56 377.082L147.586 380.515Z" fill="#ADF8FF"/>
<path d="M161.993 389.994L148.236 382.03V380.897L167.979 385.428V386.55L161.993 389.994Z" fill="#32A5C4"/>
<path d="M161.993 388.862L148.236 380.897L154.21 377.463L167.979 385.428L161.993 388.862Z" fill="#ADF8FF"/>
<path d="M36.8524 326.842L25.8208 320.426V319.305L42.0492 321.814V322.935L36.8524 326.842Z" fill="#32A5C4"/>
<path d="M37.1888 325.894L25.8208 319.305L31.8064 315.86L43.1744 322.461L37.1888 325.894Z" fill="#ADF8FF"/>
<path d="M45.9817 332.09L36.7133 326.761V325.628L51.9673 327.524V328.657L45.9817 332.09Z" fill="#32A5C4"/>
<path d="M45.9817 330.969L36.7133 325.628L42.6873 322.183L51.9673 327.524L45.9817 330.969Z" fill="#ADF8FF"/>
<path d="M55.9112 337.813L46.6312 332.483V331.351L61.8968 333.246V334.368L55.9112 337.813Z" fill="#32A5C4"/>
<path d="M55.9112 336.68L46.6312 331.351L52.6168 327.906L61.8968 333.246L55.9112 336.68Z" fill="#ADF8FF"/>
<path d="M65.8408 343.535L56.5608 338.194V337.073L71.8148 338.957V340.09L65.8408 343.535Z" fill="#32A5C4"/>
<path d="M65.8408 342.402L56.5608 337.073L62.5464 333.628L71.8148 338.957L65.8408 342.402Z" fill="#ADF8FF"/>
<path d="M75.7587 349.257L66.4904 343.916V342.783L81.7443 344.679V345.812L75.7587 349.257Z" fill="#32A5C4"/>
<path d="M75.7587 348.124L66.4904 342.783L72.4643 339.35L81.7443 344.679L75.7587 348.124Z" fill="#ADF8FF"/>
<path d="M85.6884 354.968L76.4084 349.627V348.506L91.6624 350.401V351.534L85.6884 354.968Z" fill="#32A5C4"/>
<path d="M85.6884 353.835L76.4084 348.506L82.394 345.061L91.6624 350.401L85.6884 353.835Z" fill="#ADF8FF"/>
<path d="M95.6064 360.69L86.338 355.349V354.216L101.592 356.112V357.245L95.6064 360.69Z" fill="#32A5C4"/>
<path d="M95.6064 359.557L86.338 354.216L92.312 350.783L101.592 356.112L95.6064 359.557Z" fill="#ADF8FF"/>
<path d="M105.536 366.412L96.256 361.071V359.938L111.51 361.834V362.967L105.536 366.412Z" fill="#32A5C4"/>
<path d="M105.536 365.279L96.256 359.938L102.242 356.494L111.51 361.834L105.536 365.279Z" fill="#ADF8FF"/>
<path d="M115.466 372.123L106.186 366.794V365.661L121.44 367.545V368.689L115.466 372.123Z" fill="#32A5C4"/>
<path d="M115.466 370.99L106.186 365.661L112.16 362.216L121.44 367.545L115.466 370.99Z" fill="#ADF8FF"/>
<path d="M125.384 377.845L116.115 372.504V371.371L131.369 373.267V374.4L125.384 377.845Z" fill="#32A5C4"/>
<path d="M125.384 376.712L116.115 371.371L122.089 367.938L131.369 373.267L125.384 376.712Z" fill="#ADF8FF"/>
<path d="M135.302 383.556L126.033 378.226V377.093L141.287 378.989V380.122L135.302 383.556Z" fill="#32A5C4"/>
<path d="M135.302 382.434L126.033 377.093L132.019 373.66L141.287 378.989L135.302 382.434Z" fill="#ADF8FF"/>
<path d="M145.231 389.278L135.963 383.937V382.816L151.217 384.712V385.833L145.231 389.278Z" fill="#32A5C4"/>
<path d="M145.231 388.145L135.963 382.816L141.937 379.371L151.217 384.712L145.231 388.145Z" fill="#ADF8FF"/>
<path d="M154.152 394.41L145.881 389.659V388.538L160.126 389.844V390.977L154.152 394.41Z" fill="#32A5C4"/>
<path d="M154.152 393.277L145.881 388.538L151.866 385.093L160.126 389.844L154.152 393.277Z" fill="#ADF8FF"/>
<path d="M33.7319 334.044L17.9211 324.958V323.825L39.7059 329.466V330.599L33.7319 334.044Z" fill="#32A5C4"/>
<path d="M33.7319 332.911L17.9211 323.825L23.8951 320.38L39.7059 329.466L33.7319 332.911Z" fill="#ADF8FF"/>
<path d="M43.65 339.755L34.3816 334.426V333.293L49.6356 335.188V336.321L43.65 339.755Z" fill="#32A5C4"/>
<path d="M43.65 338.633L34.3816 333.293L40.3556 329.859L49.6356 335.188L43.65 338.633Z" fill="#ADF8FF"/>
<path d="M53.5796 345.477L44.2996 340.136V339.015L59.5536 340.899V342.032L53.5796 345.477Z" fill="#32A5C4"/>
<path d="M53.5796 344.344L44.2996 339.015L50.2852 335.57L59.5536 340.899L53.5796 344.344Z" fill="#ADF8FF"/>
<path d="M63.4975 351.199L54.2291 345.858V344.725L69.4831 346.621V347.754L63.4975 351.199Z" fill="#32A5C4"/>
<path d="M63.4975 350.066L54.2291 344.725L60.2031 341.292L69.4831 346.621L63.4975 350.066Z" fill="#ADF8FF"/>
<path d="M73.4271 356.91L64.1471 351.581V350.448L79.4011 352.344V353.476L73.4271 356.91Z" fill="#32A5C4"/>
<path d="M73.4271 355.777L64.1471 350.448L70.1327 347.003L79.4011 352.344L73.4271 355.777Z" fill="#ADF8FF"/>
<path d="M83.3452 362.632L74.0768 357.303V356.158L89.3308 358.054V359.187L83.3452 362.632Z" fill="#32A5C4"/>
<path d="M83.3452 361.499L74.0768 356.158L80.0508 352.725L89.3308 358.054L83.3452 361.499Z" fill="#ADF8FF"/>
<path d="M93.2748 368.354L84.0063 363.013V361.892L99.2487 363.776V364.909L93.2748 368.354Z" fill="#32A5C4"/>
<path d="M93.2748 367.221L84.0063 361.892L89.9804 358.447L99.2487 363.776L93.2748 367.221Z" fill="#ADF8FF"/>
<path d="M103.193 374.065L93.9243 368.736V367.603L109.178 369.499V370.631L103.193 374.065Z" fill="#32A5C4"/>
<path d="M103.193 372.943L93.9243 367.603L99.9099 364.158L109.178 369.499L103.193 372.943Z" fill="#ADF8FF"/>
<path d="M113.122 379.787L103.854 374.446V373.325L119.108 375.221V376.342L113.122 379.787Z" fill="#32A5C4"/>
<path d="M113.122 378.654L103.854 373.325L109.828 369.88L119.108 375.221L113.122 378.654Z" fill="#ADF8FF"/>
<path d="M123.052 385.509L113.772 380.168V379.036L129.026 380.931V382.064L123.052 385.509Z" fill="#32A5C4"/>
<path d="M123.052 384.376L113.772 379.036L119.758 375.602L129.026 380.931L123.052 384.376Z" fill="#ADF8FF"/>
<path d="M132.97 391.22L123.702 385.891V384.758L138.956 386.654V387.786L132.97 391.22Z" fill="#32A5C4"/>
<path d="M132.97 390.098L123.702 384.758L129.676 381.313L138.956 386.654L132.97 390.098Z" fill="#ADF8FF"/>
<path d="M146.391 398.849L133.62 391.613V390.48L152.377 394.283V395.416L146.391 398.849Z" fill="#32A5C4"/>
<path d="M146.391 397.728L133.62 390.48L139.605 387.035L152.377 394.283L146.391 397.728Z" fill="#ADF8FF"/>
<path d="M21.4476 335.951L10.2072 329.385V328.252L27.4332 331.374V332.507L21.4476 335.951Z" fill="#32A5C4"/>
<path d="M21.4476 334.819L10.2072 328.252L16.1928 324.819L27.4332 331.374L21.4476 334.819Z" fill="#ADF8FF"/>
<path d="M31.3772 341.674L22.0972 336.333V335.212L37.3628 337.096V338.229L31.3772 341.674Z" fill="#32A5C4"/>
<path d="M31.3772 340.541L22.0972 335.212L28.0828 331.767L37.3628 337.096L31.3772 340.541Z" fill="#ADF8FF"/>
<path d="M41.2951 347.384L32.0267 342.055V340.922L47.2807 342.818V343.951L41.2951 347.384Z" fill="#32A5C4"/>
<path d="M41.2951 346.263L32.0267 340.922L38.0123 337.477L47.2807 342.818L41.2951 346.263Z" fill="#ADF8FF"/>
<path d="M100.652 381.671L41.9563 347.777V346.644L106.638 377.105V378.226L100.652 381.671Z" fill="#32A5C4"/>
<path d="M100.652 380.538L41.9563 346.644L47.9303 343.2L106.638 377.105L100.652 380.538Z" fill="#ADF8FF"/>
<path d="M110.768 387.417L101.499 382.076V380.955L116.753 382.85V383.972L110.768 387.417Z" fill="#32A5C4"/>
<path d="M110.768 386.284L101.499 380.955L107.485 377.51L116.753 382.85L110.768 386.284Z" fill="#ADF8FF"/>
<path d="M120.697 393.139L111.417 387.798V386.665L126.683 388.561V389.694L120.697 393.139Z" fill="#32A5C4"/>
<path d="M120.697 392.006L111.417 386.665L117.403 383.232L126.683 388.561L120.697 392.006Z" fill="#ADF8FF"/>
<path d="M130.615 398.849L121.347 393.52V392.387L136.601 394.283V395.416L130.615 398.849Z" fill="#32A5C4"/>
<path d="M130.615 397.728L121.347 392.387L127.321 388.942L136.601 394.283L130.615 397.728Z" fill="#ADF8FF"/>
<path d="M138.608 403.427L131.276 399.231V398.11L144.593 398.849V399.982L138.608 403.427Z" fill="#32A5C4"/>
<path d="M138.608 402.294L131.276 398.11L137.25 394.665L144.593 398.849L138.608 402.294Z" fill="#ADF8FF"/>
<path d="M248.054 283.908L273.84 269.019L301.216 289.053L275.43 303.942L248.054 283.908Z" fill="#97DFFF"/>
<path d="M275.418 311.352L301.216 296.462V289.053L275.43 303.942L275.418 311.352Z" fill="#55C3FE"/>
<path d="M275.418 311.352L301.216 296.462L307.654 300.162L281.868 315.063L275.418 311.352Z" fill="#97DFFF"/>
<path d="M281.867 322.472L307.654 307.583V300.162L281.867 315.063V322.472Z" fill="#55C3FE"/>
<path d="M281.868 322.484L307.654 307.595L314.092 311.306L288.306 326.195L281.868 322.484Z" fill="#97DFFF"/>
<path d="M288.306 333.616L314.092 318.715V311.306L288.306 326.195V333.616Z" fill="#55C3FE"/>
<path d="M288.306 333.628L314.092 318.727L320.542 322.438L294.755 337.339L288.306 333.628Z" fill="#97DFFF"/>
<path d="M294.744 344.749L320.542 329.859V322.438L294.755 337.339L294.744 344.749Z" fill="#55C3FE"/>
<path d="M294.744 344.76L320.542 329.871L326.98 333.582L301.193 348.471L294.744 344.76Z" fill="#97DFFF"/>
<path d="M301.193 355.881L326.98 340.992V333.582L301.193 348.471V355.881Z" fill="#55C3FE"/>
<path d="M301.193 355.892L326.98 341.003L333.43 344.714L307.643 359.603L301.193 355.892Z" fill="#97DFFF"/>
<path d="M307.631 367.025L333.43 352.124V344.714L307.643 359.603L307.631 367.025Z" fill="#55C3FE"/>
<path d="M307.631 367.025L333.43 352.135L339.868 355.846L314.081 370.735L307.631 367.025Z" fill="#97DFFF"/>
<path d="M314.081 378.157L339.868 363.256V355.846L314.081 370.735V378.157Z" fill="#55C3FE"/>
<path d="M301.193 355.835V348.425L294.744 344.714V337.246L288.317 333.593V326.183L281.868 322.472V315.063L275.43 311.352V303.942L248.054 283.908L307.631 374.365L314.092 378.076V370.666L307.631 367.025V359.545L301.193 355.835Z" fill="#35AFE5"/>
<path d="M142.679 223.369V254.916C142.679 261.401 146.983 267.898 155.59 272.845C172.793 282.741 200.702 282.741 217.905 272.845C226.512 267.898 230.816 261.401 230.804 254.916V223.38H142.679V223.369Z" fill="#0A253F"/>
<path d="M185.042 264.488L109.515 221.022V218.941H260.57V221.022L185.042 264.488Z" fill="#0B2D4F"/>
<path d="M185.042 262.395L109.515 218.941L185.042 175.487L260.57 218.941L185.042 262.395Z" fill="#164072"/>
<path d="M226.791 266.695H224.181V239.934L184.462 220.109L185.634 217.785L226.791 238.327V266.695Z" fill="#FFD629"/>
<path d="M190.448 219.415C190.448 220.849 188.522 222.016 186.144 222.016C183.766 222.016 181.829 220.849 181.829 219.415C181.829 217.982 183.755 216.814 186.144 216.814C188.522 216.814 190.448 217.982 190.448 219.415Z" fill="#FFD629"/>
<path d="M228.6 278.672V265.424C228.6 263.748 227.243 262.395 225.561 262.395C223.879 262.395 222.522 263.748 222.522 265.424V278.672H228.6Z" fill="#FFF42C"/>
<path d="M291.507 274.094C290.324 274.094 289.129 274.082 287.923 274.059L287.958 271.747C291.055 271.793 294.106 271.782 297.18 271.701L297.238 274.013C295.335 274.059 293.41 274.094 291.507 274.094ZM278.608 273.701C275.905 273.539 273.121 273.331 270.337 273.065L269.328 272.973L269.56 270.672L270.569 270.765C273.33 271.019 276.091 271.239 278.759 271.389L278.608 273.701ZM306.564 273.527L306.39 271.227C309.487 270.996 312.561 270.672 315.554 270.291L315.856 272.58C312.816 272.973 309.696 273.285 306.564 273.527ZM260.071 271.874C256.962 271.435 253.865 270.926 250.872 270.372L251.302 268.106C254.26 268.661 257.31 269.158 260.396 269.597L260.071 271.874ZM325.066 271.146L324.637 268.869C327.664 268.302 330.692 267.655 333.627 266.927L334.184 269.169C331.202 269.909 328.14 270.568 325.066 271.146ZM241.755 268.406C238.692 267.667 235.665 266.834 232.753 265.944L233.438 263.736C236.303 264.615 239.284 265.435 242.3 266.164L241.755 268.406ZM343.174 266.626L342.466 264.43C345.412 263.493 348.324 262.453 351.108 261.343L351.966 263.493C349.136 264.615 346.178 265.667 343.174 266.626ZM223.926 262.904C220.968 261.771 218.079 260.534 215.33 259.228L216.328 257.147C219.019 258.43 221.861 259.644 224.761 260.754L223.926 262.904ZM360.527 259.69L359.506 257.609C362.279 256.245 364.993 254.777 367.557 253.24L368.752 255.216C366.13 256.8 363.358 258.303 360.527 259.69ZM207.059 254.858C204.333 253.251 201.688 251.529 199.218 249.737L200.586 247.864C202.999 249.621 205.574 251.298 208.231 252.858L207.059 254.858ZM376.547 250.049L375.166 248.188C377.66 246.361 380.038 244.431 382.254 242.431L383.808 244.142C381.546 246.2 379.099 248.188 376.547 250.049ZM191.944 243.83C189.613 241.714 187.409 239.46 185.379 237.137L187.13 235.622C189.102 237.876 191.248 240.073 193.51 242.119L191.944 243.83ZM390.432 237.495L388.692 235.969C390.734 233.669 392.613 231.264 394.306 228.802L396.22 230.108C394.48 232.64 392.532 235.125 390.432 237.495ZM179.66 229.703C177.92 227.126 176.319 224.397 174.904 221.623L176.969 220.583C178.338 223.276 179.892 225.912 181.586 228.42L179.66 229.703ZM401.011 222.028L398.935 220.987C400.304 218.259 401.475 215.438 402.403 212.618L404.607 213.335C403.644 216.271 402.438 219.195 401.011 222.028ZM171.169 213.011C170.113 210.109 169.22 207.092 168.501 204.029L170.763 203.497C171.47 206.468 172.34 209.404 173.361 212.225L171.169 213.011ZM406.823 204.191L404.526 203.832C404.955 201.092 405.176 198.318 405.176 195.578L405.164 194.815L407.484 194.781L407.496 195.567C407.496 198.434 407.264 201.324 406.823 204.191ZM166.854 194.827C166.482 191.787 166.25 188.642 166.181 185.498L168.501 185.452C168.57 188.515 168.791 191.579 169.15 194.55L166.854 194.827ZM404.248 185.845C403.691 182.909 402.856 179.984 401.788 177.163L403.958 176.343C405.071 179.29 405.941 182.342 406.521 185.406L404.248 185.845ZM168.733 176.331L166.413 176.169C166.633 173.106 166.993 169.985 167.492 166.898L169.777 167.268C169.301 170.285 168.953 173.337 168.733 176.331ZM397.902 168.99C396.406 166.424 394.678 163.916 392.764 161.523L394.573 160.078C396.568 162.563 398.366 165.164 399.909 167.834L397.902 168.99ZM171.61 158.297L169.359 157.743C170.102 154.737 170.972 151.72 171.958 148.784L174.162 149.512C173.199 152.39 172.34 155.35 171.61 158.297ZM177.421 140.957L175.287 140.044C176.528 137.154 177.885 134.322 179.324 131.617L181.377 132.704C179.962 135.351 178.628 138.137 177.421 140.957ZM186.04 124.843L184.091 123.583C185.692 121.132 187.42 118.531 189.242 115.861L191.156 117.155C189.346 119.826 187.629 122.404 186.04 124.843ZM196.422 109.572L194.52 108.243C196.271 105.757 198.081 103.237 199.914 100.705L201.793 102.058C199.972 104.578 198.174 107.098 196.422 109.572ZM207.268 94.6018L205.4 93.2261C207.233 90.7523 209.089 88.2785 210.957 85.8046L212.813 87.1918C210.957 89.6657 209.101 92.1395 207.268 94.6018ZM218.427 79.8512L216.583 78.4409C218.474 75.9786 220.376 73.5279 222.255 71.1234L224.088 72.5453C222.22 74.9498 220.318 77.3889 218.427 79.8512ZM229.818 65.2741L227.997 63.8406C229.946 61.3783 231.883 58.9507 233.762 56.5925L235.572 58.0375C233.693 60.3842 231.767 62.8118 229.818 65.2741Z" fill="#35AFE5"/>
<path d="M386.453 154.702C385.363 153.673 384.214 152.656 383.043 151.673L384.539 149.905C385.746 150.911 386.929 151.962 388.054 153.026L386.453 154.702Z" fill="#35AFE5"/>
<path d="M27.4332 203.821L25.2988 202.907C26.4356 200.249 28.2568 197.162 28.2916 197.104V201.821C28.0364 202.399 28.2336 201.948 27.4332 203.821Z" fill="#1D6BAA"/>
<path d="M65.7016 279.7C64.2516 279.7 62.7552 279.654 61.2472 279.573L61.3748 277.261C64.5996 277.446 67.6968 277.423 70.5968 277.215L70.7708 279.516C69.1352 279.631 67.43 279.7 65.7016 279.7ZM51.7932 278.51C48.4872 277.955 45.3668 277.18 42.5248 276.232L43.2672 274.036C46.0048 274.949 48.9976 275.689 52.1876 276.221L51.7932 278.51ZM80.2132 278.047L79.6564 275.805C82.6956 275.065 85.5956 274.036 88.252 272.776L89.2496 274.857C86.4424 276.198 83.4032 277.273 80.2132 278.047ZM33.7668 272.267C30.9016 270.557 28.3728 268.522 26.2268 266.233L27.9204 264.661C29.9156 266.8 32.282 268.684 34.95 270.291L33.7668 272.267ZM97.416 269.794L95.966 267.99C98.3092 266.129 100.467 263.967 102.381 261.563L104.202 262.996C102.184 265.528 99.8984 267.817 97.416 269.794ZM20.7748 258.257C19.4292 255.482 18.42 252.407 17.7704 249.113L20.044 248.662C20.6588 251.76 21.5984 254.638 22.8628 257.239L20.7748 258.257ZM109.364 254.939L107.299 253.887C108.633 251.274 109.805 248.419 110.768 245.414L112.983 246.119C111.974 249.251 110.756 252.222 109.364 254.939ZM16.8656 239.599V239.321C16.8656 236.397 17.086 233.299 17.5152 230.108L19.812 230.42C19.3944 233.507 19.1856 236.501 19.1856 239.321V239.576L16.8656 239.599ZM115.245 236.894L112.96 236.489C113.482 233.576 113.865 230.49 114.097 227.334L116.417 227.496C116.173 230.744 115.79 233.9 115.245 236.894ZM21.552 221.357L19.3016 220.814C20.0208 217.843 20.914 214.791 21.9464 211.739L24.1504 212.479C23.1296 215.473 22.2596 218.456 21.552 221.357ZM114.34 218.086C114.294 215.092 114.12 211.982 113.83 208.838L116.138 208.63C116.428 211.832 116.602 214.999 116.649 218.051L114.34 218.086ZM112.693 199.636C112.229 196.642 111.649 193.578 110.988 190.504L113.262 190.018C113.934 193.128 114.514 196.249 114.99 199.278L112.693 199.636ZM108.772 181.475C107.972 178.527 107.079 175.533 106.116 172.574L108.32 171.857C109.294 174.851 110.199 177.892 111.011 180.874L108.772 181.475ZM103.135 163.696C102.184 160.725 101.302 157.685 100.513 154.644L102.764 154.066C103.541 157.06 104.411 160.066 105.35 162.991L103.135 163.696ZM98.3904 145.477C97.764 142.414 97.2188 139.293 96.7548 136.206L99.0516 135.871C99.504 138.923 100.049 141.998 100.664 145.026L98.3904 145.477ZM95.6296 126.843C95.3396 123.71 95.1424 120.542 95.038 117.444L97.358 117.363C97.4624 120.415 97.6596 123.536 97.938 126.635L95.6296 126.843ZM97.3116 108.081L94.9916 108.023C95.0728 104.844 95.27 101.676 95.5484 98.6131L97.8568 98.8327C97.59 101.838 97.4044 104.96 97.3116 108.081ZM99.0632 89.631L96.778 89.2495C97.3116 86.082 97.9612 82.9724 98.7268 80.0015L100.977 80.5679C100.223 83.4811 99.5852 86.5329 99.0632 89.631ZM103.68 71.7476L101.499 70.9616C102.613 67.8982 103.877 64.9619 105.258 62.2453L107.334 63.2857C106 65.9214 104.77 68.7652 103.68 71.7476ZM112.055 55.4134L110.164 54.0724C112.078 51.3789 114.178 48.9398 116.394 46.8127L118.006 48.4774C115.883 50.5119 113.888 52.847 112.055 55.4134ZM168.988 44.3389C166.1 42.9401 163.234 41.761 160.45 40.8131L161.193 38.6282C164.058 39.5993 167.016 40.8246 169.986 42.2581L168.988 44.3389ZM125.21 42.9632L124.026 40.9749C126.81 39.3218 129.78 38.0271 132.866 37.137L133.515 39.3565C130.615 40.2004 127.82 41.4142 125.21 42.9632ZM151.553 38.5473C148.433 38.0271 145.359 37.819 142.447 37.9346L142.354 35.6226C145.44 35.507 148.665 35.7151 151.936 36.27L151.553 38.5473Z" fill="#1D6BAA"/>
<path d="M181.18 51.3674C179.892 50.5119 178.593 49.6796 177.317 48.8935L178.523 46.9168C179.822 47.7144 181.156 48.5583 182.467 49.4368L181.18 51.3674Z" fill="#1D6BAA"/>
<path d="M34.9151 40.8593C34.9151 40.8593 34.7527 49.1594 39.1027 50.9628C42.6059 50.2692 38.6967 41.3333 38.6967 41.3333L34.9151 40.8593Z" fill="#112F5B"/>
<path d="M88.0779 107.63C88.7043 107.272 89.1567 106.763 89.4931 106.173L86.5583 107.815C87.4051 107.722 88.0199 107.665 88.0779 107.63Z" fill="#E2E2E2"/>
<path d="M99.0399 186.411C98.9819 186.226 98.9007 186.03 98.7731 185.845C97.4971 184.007 92.2539 179.938 90.7807 178.805C90.8503 178.689 90.9083 178.597 90.9083 178.597C90.9083 178.597 91.9755 150.575 89.0059 138.472C87.9155 134.044 83.9019 129.328 79.2503 125.12L78.9023 116.866L79.6099 111.653L40.9935 133.212C48.1391 136.472 56.6651 140.275 56.6651 140.275C56.6651 140.275 62.0011 192.92 62.2795 193.116C62.1287 193.243 62.0127 193.382 61.9895 193.555C61.9083 194.203 61.8271 194.723 61.8271 195.162C61.8271 195.197 61.8271 195.232 61.8271 195.266C61.8387 195.44 61.8619 195.602 61.8967 195.752C61.8967 195.763 61.8967 195.763 61.8967 195.775C61.9431 195.925 62.0243 196.052 62.1287 196.179C62.1519 196.203 62.1751 196.237 62.2099 196.26C62.3259 196.376 62.4651 196.503 62.6391 196.596C63.7179 197.208 64.8895 197.971 70.4111 200.873C70.7475 201.046 71.0607 201.197 71.3855 201.335C71.4899 201.381 71.5827 201.416 71.6871 201.451C71.8959 201.532 72.1047 201.624 72.3019 201.694C72.4179 201.74 72.5223 201.763 72.6383 201.798C72.8123 201.855 72.9979 201.913 73.1603 201.959C73.2763 201.994 73.3807 202.006 73.4851 202.04C73.6475 202.075 73.7983 202.11 73.9607 202.133C74.0651 202.156 74.1695 202.168 74.2739 202.179C74.4131 202.202 74.5639 202.214 74.6915 202.225C74.7959 202.237 74.8887 202.237 74.9931 202.237C75.1207 202.237 75.2367 202.237 75.3643 202.237C75.4571 202.237 75.5499 202.225 75.6427 202.225C75.7471 202.214 75.8515 202.202 75.9559 202.179C76.0487 202.168 76.1415 202.156 76.2227 202.133C76.3039 202.11 76.3851 202.087 76.4663 202.064C76.5591 202.04 76.6519 202.017 76.7331 201.983C76.7795 201.959 76.8375 201.936 76.8839 201.913C76.9767 201.867 77.0811 201.832 77.1623 201.775C77.8815 201.335 78.1715 200.653 77.9395 199.925C77.8815 199.74 77.8003 199.555 77.6727 199.37C76.4779 197.648 71.8031 193.96 70.0051 192.584C70.1211 192.48 70.1907 192.399 70.1907 192.399C70.1907 192.399 70.1559 165.569 68.4507 153.234C67.8127 148.656 72.4411 152.887 68.9379 148.564C74.4247 150.772 78.0671 139.813 78.0671 139.813L82.7187 180.839C82.7187 180.839 82.8115 180.886 82.9623 180.943C82.9391 181.198 82.9159 181.429 82.9159 181.637C82.9159 181.672 82.9159 181.706 82.9159 181.741C82.9275 181.914 82.9507 182.076 82.9855 182.227C82.9855 182.238 82.9855 182.238 82.9855 182.25C83.0319 182.4 83.1131 182.527 83.2175 182.654C83.2407 182.689 83.2639 182.712 83.2987 182.735C83.4147 182.862 83.5539 182.978 83.7279 183.082C84.8067 183.695 85.9783 184.458 91.4999 187.359C91.8247 187.533 92.1495 187.683 92.4627 187.822C92.5671 187.868 92.6599 187.903 92.7643 187.949C92.9731 188.03 93.1819 188.111 93.3791 188.192C93.4951 188.238 93.5995 188.261 93.7155 188.296C93.8895 188.353 94.0751 188.411 94.2491 188.446C94.3651 188.481 94.4695 188.492 94.5739 188.527C94.7363 188.561 94.8871 188.596 95.0495 188.619C95.1539 188.642 95.2583 188.654 95.3627 188.665C95.5019 188.689 95.6527 188.7 95.7803 188.712C95.8847 188.712 95.9775 188.723 96.0819 188.723C96.2095 188.723 96.3255 188.723 96.4531 188.723C96.5459 188.723 96.6503 188.712 96.7315 188.7C96.8359 188.689 96.9403 188.677 97.0447 188.654C97.1375 188.642 97.2303 188.619 97.3115 188.608C97.3927 188.585 97.4739 188.561 97.5551 188.538C97.6479 188.515 97.7407 188.481 97.8219 188.446C97.8683 188.423 97.9147 188.4 97.9727 188.376C98.0655 188.33 98.1699 188.284 98.2511 188.238C98.9819 187.833 99.2719 187.14 99.0399 186.411Z" fill="#E2E2E2"/>
<path d="M90.0152 118.034C90.0152 118.034 83.3916 118.566 81.988 124.01C80.8744 128.681 78.9952 125.86 79.378 126.727C79.7608 127.594 83.1016 134.125 86.2916 131.235C89.4816 128.345 94.168 125.351 92.3584 119.236C91.0824 118.092 90.0152 118.034 90.0152 118.034Z" fill="#0B223D"/>
<path d="M72.0003 129.409C72.0003 129.409 65.3767 129.941 63.9731 135.385C62.8595 140.056 62.8131 140.252 63.1959 141.119C63.5787 141.986 65.0751 145.5 68.2767 142.61C71.4783 139.72 77.9511 138.853 76.1415 132.738C74.8655 131.571 72.0003 129.409 72.0003 129.409Z" fill="#112F5B"/>
<path d="M60.5395 51.0437C60.5395 51.0437 60.4235 49.8761 57.2451 56.9046C54.0667 63.9331 61.6995 86.3942 63.5091 88.8564C65.3187 91.3187 88.0315 98.2547 93.0311 90.5673C89.9107 88.972 92.9267 86.6716 92.3119 83.088C83.0319 86.3248 69.6687 80.7529 66.8267 78.4062C62.1055 74.4874 69.1119 60.7656 60.5395 51.0437Z" fill="url(#paint3_linear_269_176)"/>
<path d="M95.8383 165.245C95.8383 165.245 103.587 170.424 105.072 172.562C106.557 174.701 103.332 176.99 97.8103 174.088C92.2887 171.187 91.1171 170.424 90.0383 169.811C88.9711 169.198 89.0407 166.239 90.0383 164.447C90.8387 163.06 95.8383 165.245 95.8383 165.245Z" fill="#FE7386"/>
<path d="M90.0499 168.829C91.1287 169.441 92.3003 170.204 97.8219 173.106C101.975 175.279 104.817 174.539 105.35 173.117C105.977 175.059 102.856 176.736 97.8219 174.088C92.3003 171.187 91.1287 170.424 90.0499 169.811C89.2263 169.337 89.1567 168.724 89.2611 167.753C89.3307 168.193 89.5511 168.54 90.0499 168.829Z" fill="#4C4C4C"/>
<path d="M37.6411 99.1795C37.6411 99.1795 37.8963 114.716 51.6655 118.092C65.4347 121.467 83.4495 126.727 83.4495 126.727L90.3399 166.043C90.3399 166.043 92.6831 168.366 94.5159 167.615C96.1051 166.967 95.8499 165.245 95.8499 165.245C95.8499 165.245 96.8011 136.16 94.2607 123.976C92.3815 114.959 60.4003 101.376 60.4003 101.376L37.6411 99.1795Z" fill="url(#paint4_linear_269_176)"/>
<path d="M92.3699 119.236C84.9923 108.867 67.5691 98.8559 67.5691 98.8559L37.6527 99.1795C37.6527 99.1795 37.9079 114.716 51.6771 118.092C63.3351 120.947 77.7539 128.137 81.2339 129.744C81.3383 123.363 86.2103 116.473 92.3699 119.236Z" fill="#112F5B"/>
<path d="M75.6078 178.747C75.6078 178.747 82.5098 183.937 83.983 186.088C85.4678 188.226 82.243 190.515 76.7214 187.614C71.1998 184.712 70.0282 183.949 68.9494 183.336C67.8822 182.724 67.8706 179.475 69.0422 177.406C69.8426 176.019 75.6078 178.747 75.6078 178.747Z" fill="#FE7386"/>
<path d="M68.9726 182.354C70.0514 182.966 71.223 183.729 76.7446 186.631C80.8974 188.804 83.7394 188.064 84.273 186.642C84.8994 188.585 81.779 190.261 76.7446 187.614C71.223 184.712 70.0514 183.949 68.9726 183.336C68.149 182.862 68.0794 182.25 68.1838 181.279C68.2534 181.718 68.4738 182.065 68.9726 182.354Z" fill="#4C4C4C"/>
<path d="M23.9995 108.358C23.9995 108.358 22.6655 123.837 36.0287 128.588C49.3803 133.339 65.8987 139.373 65.8987 139.373L69.1351 178.365C69.1351 178.365 70.2835 180.146 72.9515 180.146C75.7007 180.146 75.6079 178.747 75.6079 178.747C75.6079 178.747 78.5195 150.552 76.8143 138.217C75.0975 125.883 57.4075 111.387 57.4075 111.387L23.9995 108.358Z" fill="url(#paint5_linear_269_176)"/>
<path d="M76.1415 132.727C71.0723 121.964 57.3959 111.387 57.3959 111.387L23.9995 108.347C23.9995 108.347 22.6655 123.825 36.0287 128.577C47.7679 132.75 61.2587 141.05 64.0079 142.691C65.8059 136.807 68.5319 130.958 76.1415 132.727Z" fill="#164072"/>
<path d="M69.5063 100.151C69.5063 100.151 70.9911 53.7372 56.7811 48.3155C42.5711 42.8939 29.5559 55.7949 24.0111 68.2912C18.4547 80.7876 19.9279 102.532 24.0111 110.612C43.4991 123.976 70.0515 106.566 69.5063 100.151Z" fill="#FFA9B8"/>
<path d="M23.9995 68.2912C29.5559 55.7949 42.5711 42.8939 56.7695 48.3155C57.2335 48.4889 57.6859 48.7201 58.1151 48.986C47.6519 50.3154 38.7547 60.3264 34.4163 70.083C28.8599 82.5794 30.3331 104.324 34.4163 112.404C36.3651 113.734 38.3835 114.751 40.4367 115.514C34.8919 115.537 29.1847 114.173 23.9995 110.612C19.9163 102.532 18.4547 80.7876 23.9995 68.2912Z" fill="#FFC0CF"/>
<path d="M60.783 27.6231C60.783 27.6231 64.3326 33.276 61.1542 45.5527C58.5674 55.4943 58.1962 61.0084 54.0202 61.4246C49.8558 61.8407 37.3742 58.812 38.743 48.4543C37.5018 48.1884 34.9614 43.4488 36.9682 39.6802C38.975 35.9116 40.3786 40.027 40.3786 40.027C40.3786 40.027 40.2974 31.8194 46.1206 28.8254C51.9438 25.8313 60.783 27.6231 60.783 27.6231Z" fill="url(#paint6_linear_269_176)"/>
<path d="M47.095 37.4954C47.1182 37.0214 51.5378 43.3101 58.6486 41.2755C56.2126 40.5357 55.6442 38.8248 55.6442 38.8248C55.6442 38.8248 58.0222 41.9922 62.1054 40.9171C60.3654 40.2004 59.5186 39.4259 59.5186 39.4259C59.5186 39.4259 62.233 40.8478 64.8198 39.8189C63.1842 39.1138 63.4278 38.0387 63.4278 38.0387C63.4278 38.0387 64.8778 39.4837 67.685 37.033C66.5366 36.8827 66.6526 31.6576 62.523 27.889C58.3934 24.1205 55.0294 23.2419 49.4962 24.1783C50.8534 22.7795 52.2918 21.9934 54.2406 22.3055C52.025 21.0802 47.3618 23.2766 45.9698 25.3227C41.6662 23.6812 33.5694 26.5249 36.249 42.1425C36.2954 41.7495 36.6666 39.2062 38.1746 38.7323C39.6942 38.2468 40.9702 41.2293 40.6222 41.9807C40.2742 42.7321 40.1118 47.1827 40.1118 47.1827L42.0722 48.2115C42.0722 48.2115 41.4574 44.3389 42.861 43.1713C44.2762 41.9922 46.8282 43.4372 47.095 37.4954Z" fill="#112F5B"/>
<path d="M94.6203 72.4875L86.1987 83.7354L59.0083 77.4236L60.5627 112.45L85.3055 112.15L93.4487 102.278L94.6203 72.4875Z" fill="white"/>
<path d="M94.6203 67.7479L86.1987 83.7354L85.3055 112.15L93.4487 102.278L94.6203 67.7479Z" fill="#E6F7FF"/>
<path d="M94.1099 85.3306C94.1099 85.3306 92.2423 89.1454 91.0823 89.5847C89.9223 90.024 90.8271 96.3704 94.3767 94.3359C97.9263 92.2898 96.2559 85.5387 94.1099 85.3306Z" fill="url(#paint7_linear_269_176)"/>
<path d="M70.7824 96.4051C68.8104 96.2664 66.56 96.7404 63.08 96.8097C59.6 96.8791 59.7276 94.9139 59.6 92.1279C58.498 92.9371 57.8368 95.122 56.062 96.4051C54.2872 97.6883 53.452 96.4051 53.452 96.4051L53.0808 96.6826C40.4948 94.463 31.6092 91.3534 29.614 88.3709C27.5724 85.3191 33.1752 76.0826 33.6624 67.7479C33.6624 67.7479 34.776 57.2976 28.048 61.1009C21.32 64.9041 19.058 91.6887 19.058 94.7405C19.058 97.7923 41.6316 102.035 53.4288 103.11C55.424 104.254 57.8368 105.295 60.2264 105.445C70.3996 105.237 72.7544 96.5439 70.7824 96.4051Z" fill="url(#paint8_linear_269_176)"/>
<path d="M35.3791 66.8347C35.3791 66.8347 34.7759 57.2977 28.0479 61.0893C24.5911 63.043 21.0299 73.3198 18.3851 79.9784C22.3291 82.9262 26.5515 84.4636 31.0175 85.3191C32.6647 82.6834 36.1563 75.6318 35.3791 66.8347Z" fill="#FC88A1"/>
<path d="M65.3419 31.6923C65.3419 31.6923 64.8895 38.5242 36.1215 41.3333C35.1935 40.316 34.6599 38.7323 34.4047 36.9752C33.8711 33.2991 34.5671 28.8601 35.4835 27.0914C36.8407 24.4904 36.5159 20.9299 34.8919 19.2884C33.2679 17.6469 33.6159 14.0864 39.2419 16.5949C44.8795 19.1034 59.3331 17.2076 65.3419 31.6923Z" fill="#FC88A1"/>
<path d="M34.4395 37.1254C34.4395 37.1254 39.7987 38.6629 50.5983 36.7093C61.3979 34.7556 64.0891 31.0333 64.1239 29.1722C67.1979 29.2646 66.7919 33.565 66.3743 34.3279C64.8315 37.1717 48.3595 44.2695 36.2143 41.8997C33.7783 40.6166 33.7667 38.0618 34.4395 37.1254Z" fill="white"/>
<path d="M33.6623 20.1207C35.9302 20.1207 37.7687 18.2885 37.7687 16.0284C37.7687 13.7684 35.9302 11.9362 33.6623 11.9362C31.3944 11.9362 29.5559 13.7684 29.5559 16.0284C29.5559 18.2885 31.3944 20.1207 33.6623 20.1207Z" fill="white"/>
<path d="M180.518 406.756C151.971 402.606 140.986 388.006 140.986 388.006C121.706 365.268 124.931 340.784 127.309 331.027C127.669 329.57 129.676 329.408 130.267 330.784C147.064 369.776 178.465 372.308 185.286 372.389C186.052 372.4 186.701 371.845 186.84 371.094L190.587 349.985C190.819 348.656 192.524 348.228 193.36 349.292L228.682 393.694C229.238 394.387 229.099 395.416 228.368 395.936L178.639 431.645C177.491 432.466 175.925 431.483 176.18 430.096L180.518 406.756Z" fill="#8AE6FF"/>
<path d="M180.472 406.063C151.924 401.913 140.939 387.313 140.939 387.313C121.66 364.574 124.885 340.09 127.263 330.333C127.622 328.877 129.629 328.715 130.221 330.091C147.018 369.082 178.419 371.614 185.24 371.695C186.005 371.707 186.666 371.152 186.794 370.4L190.494 349.604C190.738 348.228 192.524 347.835 193.325 348.98L225.515 395.15C226.002 395.855 225.84 396.826 225.132 397.323L178.987 429.668C177.839 430.466 176.296 429.495 176.54 428.119L180.472 406.063Z" fill="#164072"/>
<path d="M196.874 26.0394C225.41 30.2126 236.396 44.8128 236.396 44.8128C255.663 67.5629 252.427 92.047 250.037 101.804C249.678 103.26 247.671 103.422 247.079 102.046C230.317 63.0429 198.904 60.4882 192.084 60.4073C191.318 60.3957 190.657 60.9506 190.529 61.702L186.771 82.799C186.539 84.1284 184.834 84.5561 183.998 83.4926L148.7 39.0675C148.143 38.3739 148.282 37.3451 149.013 36.8249L198.765 1.15072C199.914 0.329958 201.48 1.32411 201.224 2.69975L196.874 26.0394Z" fill="#8AECFF"/>
<path d="M196.932 26.7446C225.468 30.9177 236.454 45.518 236.454 45.518C255.721 68.2681 252.485 92.7522 250.095 102.509C249.736 103.965 247.729 104.127 247.137 102.752C230.375 63.7481 198.962 61.1934 192.142 61.1124C191.376 61.1009 190.715 61.6558 190.587 62.4072L186.875 83.2036C186.632 84.5792 184.834 84.9723 184.045 83.8163L151.878 37.6225C151.391 36.9174 151.553 35.9463 152.261 35.4492L198.429 3.12748C199.577 2.32984 201.12 3.31243 200.876 4.67651L196.932 26.7446Z" fill="#164072"/>
<defs>
<linearGradient id="paint0_linear_269_176" x1="331.422" y1="51.0389" x2="306.359" y2="54.965" gradientUnits="userSpaceOnUse">
<stop stop-color="#FFE2C4"/>
<stop offset="1" stop-color="#FFB870"/>
</linearGradient>
<linearGradient id="paint1_linear_269_176" x1="314.855" y1="107.352" x2="296.793" y2="110.181" gradientUnits="userSpaceOnUse">
<stop stop-color="#FFB870"/>
<stop offset="1" stop-color="#FFE2C4"/>
</linearGradient>
<linearGradient id="paint2_linear_269_176" x1="276.993" y1="99.2332" x2="271.303" y2="100.124" gradientUnits="userSpaceOnUse">
<stop stop-color="#FFB870"/>
<stop offset="1" stop-color="#FFE2C4"/>
</linearGradient>
<linearGradient id="paint3_linear_269_176" x1="56.4781" y1="72.5237" x2="93.0325" y2="72.5237" gradientUnits="userSpaceOnUse">
<stop stop-color="#FFB870"/>
<stop offset="1" stop-color="#FFE2C4"/>
</linearGradient>
<linearGradient id="paint4_linear_269_176" x1="37.6402" y1="133.468" x2="96.0167" y2="133.468" gradientUnits="userSpaceOnUse">
<stop stop-color="#FFE2C4"/>
<stop offset="1" stop-color="#FFB870"/>
</linearGradient>
<linearGradient id="paint5_linear_269_176" x1="23.9679" y1="144.252" x2="77.3527" y2="144.252" gradientUnits="userSpaceOnUse">
<stop stop-color="#FFE2C4"/>
<stop offset="1" stop-color="#FFB870"/>
</linearGradient>
<linearGradient id="paint6_linear_269_176" x1="36.3469" y1="41.4111" x2="61.4092" y2="45.3371" gradientUnits="userSpaceOnUse">
<stop stop-color="#FFE2C4"/>
<stop offset="1" stop-color="#FFB870"/>
</linearGradient>
<linearGradient id="paint7_linear_269_176" x1="90.7745" y1="89.6052" x2="96.4653" y2="90.4964" gradientUnits="userSpaceOnUse">
<stop stop-color="#FFB870"/>
<stop offset="1" stop-color="#FFE2C4"/>
</linearGradient>
<linearGradient id="paint8_linear_269_176" x1="19.0645" y1="82.8509" x2="71.4211" y2="82.8509" gradientUnits="userSpaceOnUse">
<stop stop-color="#FFB870"/>
<stop offset="1" stop-color="#FFE2C4"/>
</linearGradient>
</defs>
</svg>
